# xmcd
#
# Track frame offsets:
#	150
#	16518
#	32393
#	48718
#	65258
#	84977
#	95515
#	110187
#	125785
#	141172
#	157800
#	175158
#	189216
#	204897
#	219267
#	233070
#	242905
#	258443
#	274372
#	290841
#	329338
#
# Disc length: 4564 seconds
#
# Revision: 1
# Processed by: cddbd v1.5.2PL0 Copyright (c) Steve Scherf et al.
# Submitted via: audiograbber 1.83.01
#
DISCID=2911d215
DTITLE=Forrozão 2007 - Vol. 3
DYEAR=1900
DGENRE=
TTITLE0=Ferro na Boneca - Bebo Pra Esquecer
TTITLE1=Cavaleiros do Forró - Quando Eu Ligo Pra Você
TTITLE2=Forró Sacode - Nossa Historia de Amor
TTITLE3=Magníficos - Muito Além Do Prazer
TTITLE4=Saia Rodada - Meu Amor
TTITLE5=Aviões Do Forró - Quer Beber
TTITLE6=Garota Safada - Mulher Gostosa Da Porra
TTITLE7=Colo De Menina - Eu Sei
TTITLE8=Forró Nela - Bem Que Eu Falei Pra Você
TTITLE9=Cavaleiros do Forró - Antigo Namorado
TTITLE10=Desejo De Menina - Moldura De Um Retrato
TTITLE11=Felipão E Forró Moral - Bota Pra Desse Ladrão
TTITLE12=Amazan - Mulher Carregada
TTITLE13=Louro Santos - Brincou De Mais
TTITLE14=Bonde Do Forró - Agarra Agarra
TTITLE15=Dedim Gouvea - O Sanfoneiro Só Quem Toca
TTITLE16=Anjo Azul - Curva Perigosa
TTITLE17=Calcinha Preta - Como Vou Deixar Você
TTITLE18=Calypso - Objeto De Desejo
TTITLE19=Mastruz Com Leite - Saga De Um Vaqueiro
TTITLE20=Garotões Do Forró - Vai Catacumba
EXTD=
EXTT0=
EXTT1=
EXTT2=
EXTT3=
EXTT4=
EXTT5=
EXTT6=
EXTT7=
EXTT8=
EXTT9=
EXTT10=
EXTT11=
EXTT12=
EXTT13=
EXTT14=
EXTT15=
EXTT16=
EXTT17=
EXTT18=
EXTT19=
EXTT20=
PLAYORDER=
